# xmcd
#
# Track frame offsets:
#	150
#	13268
#	44027
#	75899
#	107133
#	138723
#
# Disc length: 2293 seconds
#
# Revision: 1
# Processed by: cddbd v1.5.2PL0 Copyright (c) Steve Scherf et al.
# Submitted via: audiograbber 1.83.01
#
DISCID=4c08f306
DTITLE=Armin van Buuren vs Sophie Ellis Bextor - Not Giving Up On Love
DYEAR=2010
DGENRE=Trance
TTITLE0=Not Giving Up On Love (Radio Version)
TTITLE1=Not Giving Up On Love (Extended Version)
TTITLE2=Not Giving Up On Love (Dash Berlin 4AM Mix)
TTITLE3=Not Giving Up On Love (Jorn van Deynhoven Remix)
TTITLE4=Not Giving Up On Love (Mischa Daniels Mode)
TTITLE5=Not Giving Up On Love (Glenn Morrison Remix)
EXTD=
EXTT0=
EXTT1=
EXTT2=
EXTT3=
EXTT4=
EXTT5=
PLAYORDER=
